<svg xmlns="http://www.w3.org/2000/svg" viewBox="0 0 200 180" fill="none">
  <!-- 云瀚社区 Orange Cloud/Knot Logo -->
  <defs>
    <linearGradient id="og" x1="0%" y1="0%" x2="100%" y2="100%">
      <stop offset="0%" style="stop-color:#F7941D"/>
      <stop offset="50%" style="stop-color:#F47B20"/>
      <stop offset="100%" style="stop-color:#ED6C23"/>
    </linearGradient>
  </defs>
  <path d="M100 20 C60 20, 20 50, 30 90 C15 75, 5 100, 25 120 C10 130, 20 160, 55 155
           C45 170, 75 175, 95 160 C110 175, 140 170, 150 155
           C175 165, 195 140, 180 120 C195 105, 190 75, 170 85
           C185 50, 145 20, 100 20Z"
        fill="url(#og)" stroke="#E8651A" stroke-width="2"/>
  <path d="M70 70 C80 55, 110 55, 120 70 C130 55, 155 65, 145 85
           C155 95, 145 115, 130 110 C140 125, 120 135, 105 125
           C90 135, 70 125, 75 110 C60 115, 50 95, 60 85
           C50 65, 65 55, 70 70Z"
        fill="#fff" fill-opacity="0.3"/>
</svg>
